<svg width="68" height="68" viewBox="0 0 68 68" fill="none" xmlns="http://www.w3.org/2000/svg">
<circle cx="34" cy="34" r="34" fill="#B5C300"/>
<circle cx="48" cy="50" r="10" stroke="white" stroke-width="2"/>
<path d="M38 35.9353C38 36.6183 37.7156 37.2065 37.1469 37.6998C36.5781 38.1931 35.8393 38.4978 34.9304 38.6138V39.7857C34.9304 39.8482 34.9047 39.8996 34.8533 39.9397C34.8018 39.9799 34.7361 40 34.6561 40H33.4985C33.4242 40 33.3599 39.9788 33.3056 39.9364C33.2513 39.894 33.2242 39.8438 33.2242 39.7857V38.6138C32.8469 38.5737 32.4825 38.5045 32.131 38.4063C31.7794 38.308 31.4893 38.2087 31.2607 38.1083C31.032 38.0078 30.8205 37.9007 30.6262 37.7868C30.4318 37.673 30.2989 37.5893 30.2275 37.5357C30.156 37.4821 30.106 37.442 30.0774 37.4152C29.9803 37.3214 29.9745 37.2299 30.0603 37.1406L30.9434 36.2366C30.9834 36.192 31.0492 36.1652 31.1406 36.1563C31.2264 36.1473 31.295 36.1674 31.3464 36.2165L31.3636 36.2299C32.0095 36.6719 32.704 36.9509 33.4471 37.067C33.6586 37.1027 33.8701 37.1205 34.0816 37.1205C34.5446 37.1205 34.9519 37.0246 35.3034 36.8326C35.655 36.6406 35.8307 36.3683 35.8307 36.0156C35.8307 35.8906 35.7879 35.7723 35.7021 35.6607C35.6164 35.5491 35.5206 35.4554 35.4149 35.3795C35.3091 35.3036 35.1419 35.2199 34.9133 35.1283C34.6846 35.0368 34.496 34.9654 34.3474 34.9141C34.1988 34.8627 33.9701 34.7902 33.6615 34.6964C33.4385 34.625 33.2628 34.5692 33.1341 34.529C33.0055 34.4888 32.8298 34.4297 32.6068 34.3516C32.3839 34.2734 32.2053 34.2042 32.0709 34.144C31.9366 34.0837 31.7751 34.0045 31.5865 33.9063C31.3979 33.808 31.245 33.7132 31.1278 33.6217C31.0106 33.5301 30.8863 33.4208 30.7548 33.2935C30.6233 33.1663 30.5219 33.0368 30.4504 32.9051C30.379 32.7734 30.3189 32.625 30.2704 32.4598C30.2218 32.2946 30.1975 32.1205 30.1975 31.9375C30.1975 31.3214 30.4776 30.7813 31.0377 30.317C31.5979 29.8527 32.3267 29.5536 33.2242 29.4196V28.2143C33.2242 28.1562 33.2513 28.106 33.3056 28.0636C33.3599 28.0212 33.4242 28 33.4985 28H34.6561C34.7361 28 34.8018 28.0201 34.8533 28.0603C34.9047 28.1004 34.9304 28.1518 34.9304 28.2143V29.3929C35.2563 29.4196 35.5721 29.471 35.8779 29.5469C36.1837 29.6228 36.4323 29.6975 36.6238 29.7712C36.8153 29.8449 36.9968 29.9286 37.1683 30.0223C37.3398 30.1161 37.4513 30.1808 37.5027 30.2165C37.5541 30.2522 37.597 30.2835 37.6313 30.3103C37.7285 30.3906 37.7428 30.4754 37.6742 30.5647L36.9797 31.5424C36.9339 31.6094 36.8682 31.6451 36.7825 31.6496C36.7024 31.6629 36.6253 31.6473 36.551 31.6027C36.5338 31.5893 36.4924 31.5625 36.4266 31.5223C36.3609 31.4821 36.2494 31.423 36.0922 31.3449C35.935 31.2667 35.7678 31.1953 35.5906 31.1306C35.4134 31.0658 35.2005 31.0078 34.9519 30.9565C34.7032 30.9051 34.4589 30.8795 34.2188 30.8795C33.6757 30.8795 33.2327 30.9754 32.8898 31.1674C32.5468 31.3594 32.3753 31.6071 32.3753 31.9107C32.3753 32.0268 32.3996 32.1339 32.4482 32.2321C32.4968 32.3304 32.5811 32.423 32.7011 32.51C32.8212 32.5971 32.9341 32.6708 33.0398 32.731C33.1456 32.7913 33.3056 32.8605 33.52 32.9386C33.7343 33.0167 33.9072 33.077 34.0387 33.1194C34.1702 33.1618 34.3703 33.2232 34.6389 33.3036C34.9419 33.3929 35.1734 33.4632 35.3334 33.5145C35.4935 33.5658 35.7107 33.644 35.9851 33.7489C36.2594 33.8538 36.4752 33.9487 36.6324 34.0335C36.7896 34.1183 36.9668 34.2299 37.164 34.3683C37.3612 34.5067 37.5127 34.6484 37.6184 34.7935C37.7242 34.9386 37.8142 35.1094 37.8885 35.3058C37.9628 35.5022 38 35.7121 38 35.9353Z" fill="white"/>
<path fill-rule="evenodd" clip-rule="evenodd" d="M18 34C18 25.1634 25.1634 18 34 18C42.8366 18 50 25.1634 50 34C50 36.5136 49.4204 38.8917 48.3875 41.0082C49.0968 41.0382 49.7849 41.1504 50.4424 41.3354C51.4434 39.095 52 36.6125 52 34C52 24.0589 43.9411 16 34 16C24.0589 16 16 24.0589 16 34C16 43.9411 24.0589 52 34 52C35.7674 52 37.4753 51.7453 39.089 51.2705C39.0303 50.8555 39 50.4313 39 50C39 49.7275 39.0121 49.4578 39.0358 49.1914C37.4524 49.716 35.7594 50 34 50C25.1634 50 18 42.8366 18 34Z" fill="white"/>
<path fill-rule="evenodd" clip-rule="evenodd" d="M11 34C11 21.2975 21.2975 11 34 11C46.7025 11 57 21.2975 57 34C57 37.5867 56.179 40.9816 54.7147 44.0071C55.2188 44.5716 55.6529 45.2001 56.0031 45.8788C57.9147 42.3453 59 38.2994 59 34C59 20.1929 47.8071 9 34 9C20.1929 9 9 20.1929 9 34C9 47.8071 20.1929 59 34 59C37.1183 59 40.1033 58.4291 42.8561 57.3861C42.2314 56.9502 41.6645 56.4371 41.1695 55.8606C38.9133 56.6001 36.5034 57 34 57C21.2975 57 11 46.7025 11 34Z" fill="white"/>
<line x1="11" y1="34" x2="13" y2="34" stroke="white" stroke-width="2" stroke-linecap="round"/>
<line x1="55" y1="34" x2="57" y2="34" stroke="white" stroke-width="2" stroke-linecap="round"/>
<line x1="34" y1="55" x2="34" y2="57" stroke="white" stroke-width="2" stroke-linecap="round"/>
<line x1="34" y1="11" x2="34" y2="13" stroke="white" stroke-width="2" stroke-linecap="round"/>
<line x1="51" y1="18.4142" x2="49.4142" y2="20" stroke="white" stroke-width="2" stroke-linecap="round"/>
<line x1="18.5858" y1="20" x2="17" y2="18.4142" stroke="white" stroke-width="2" stroke-linecap="round"/>
<line x1="20" y1="49.4142" x2="18.4142" y2="51" stroke="white" stroke-width="2" stroke-linecap="round"/>
<path d="M52 49.0769V50.9231H48.9231V54H47.0769V50.9231H44V49.0769H47.0769V46H48.9231V49.0769H52Z" fill="white"/>
</svg>
