<svg width="32" height="32" viewBox="0 0 32 32" fill="none" xmlns="http://www.w3.org/2000/svg">
<path d="M5 7.00004C4.45 7.00004 4 7.45004 4 8.00004C4 8.55004 4.45 9.00004 5 9.00004H7.219L9.844 19.5C10.066 20.39 10.864 21 11.781 21H23.25C24.152 21 24.918 20.402 25.156 19.531L27.75 10H11L11.5 12H25.156L23.25 19H11.781L9.156 8.50004C9.04785 8.06935 8.79827 7.68742 8.44724 7.41545C8.09621 7.14348 7.66405 6.99719 7.22 7.00004H5ZM22 21C20.355 21 19 22.355 19 24C19 25.645 20.355 27 22 27C23.645 27 25 25.645 25 24C25 22.355 23.645 21 22 21ZM13 21C11.355 21 10 22.355 10 24C10 25.645 11.355 27 13 27C14.645 27 16 25.645 16 24C16 22.355 14.645 21 13 21ZM13 23C13.563 23 14 23.438 14 24C14 24.563 13.562 25 13 25C12.437 25 12 24.562 12 24C12 23.437 12.438 23 13 23ZM22 23C22.563 23 23 23.438 23 24C23 24.563 22.562 25 22 25C21.437 25 21 24.562 21 24C21 23.437 21.438 23 22 23Z" fill="#B5C401"/>
</svg>
