<svg width="107" height="63" viewBox="0 0 107 63" fill="none" xmlns="http://www.w3.org/2000/svg">
<path d="M18.0886 43L23.4566 17.392H13.6006L14.8326 11.584H41.0566L39.8246 17.392H30.4086L25.0406 43H18.0886ZM61.707 43V39.788H61.619C59.683 42.428 57.043 43.748 53.699 43.748C49.299 43.748 45.867 42.5307 43.403 40.096C40.9684 37.6613 39.751 34.244 39.751 29.844C39.751 26.4413 40.4257 23.3027 41.775 20.428C43.1537 17.5533 45.163 15.236 47.803 13.476C50.443 11.716 53.479 10.836 56.911 10.836C60.8124 10.836 64.0097 11.7747 66.503 13.652C68.9964 15.5293 70.243 18.3013 70.243 21.968H63.335C63.159 18.4187 61.0324 16.644 56.955 16.644C54.7257 16.644 52.8044 17.348 51.191 18.756C49.5777 20.1347 48.419 21.792 47.715 23.728C47.011 25.664 46.659 27.7027 46.659 29.844C46.659 32.1907 47.2457 34.1267 48.419 35.652C49.6217 37.1773 51.411 37.94 53.787 37.94C56.251 37.94 58.1577 37.3533 59.507 36.18C60.8564 35.0067 61.8537 33.3347 62.499 31.164H55.239L56.339 26.016H69.671L66.063 43H61.707ZM71.3338 43L77.9338 11.584H84.8858L79.5178 37.192H94.6978L93.4658 43H71.3338Z" fill="#707070"/>
<rect y="57" width="107" height="6" rx="3" fill="#B5C401"/>
</svg>
